<svg xmlns="http://www.w3.org/2000/svg" viewBox="0 0 256 256" width="256" height="256">
  <defs>
    <clipPath id="c"><circle cx="128" cy="128" r="124"/></clipPath>
    <clipPath id="sh"><ellipse cx="128" cy="236" rx="92" ry="46"/></clipPath>
  </defs>
  <g clip-path="url(#c)">
    <circle cx="128" cy="128" r="124" fill="#F6F0E8"/>
    <ellipse cx="128" cy="236" rx="92" ry="46" fill="#567064"/>
    <ellipse cx="128" cy="230" rx="66.2" ry="18" fill="#405a4e" opacity="0.16"/>
    <rect x="108" y="188" width="40" height="20" rx="18" fill="#F6CDB4"/>
    <ellipse cx="128" cy="192" rx="18" ry="6" fill="#e4bba2" opacity="0.2"/>
    <path d="M102 196 Q128 218 154 196" fill="none" stroke="#3c564a" stroke-width="3" opacity="0.5"/>
    <circle cx="48" cy="128" r="14" fill="#F6CDB4"/>
    <circle cx="48" cy="128" r="7" fill="#e6bda4" opacity="0.25"/>
    <circle cx="208" cy="128" r="14" fill="#F6CDB4"/>
    <circle cx="208" cy="128" r="7" fill="#e6bda4" opacity="0.25"/>
    <path d="M44.3 105.2 A85 85 0 0 1 211.7 105.2 C222 121.2 220 115.9 218 123.9 L207 132.9 L215 142.6 L207 151.6 L218 161.3 L207 170.3 L215 180 Q218 198 200 198 L156 188 L156 130 L100 130 L100 188 L56 198 Q38 198 41 180 L49 170.3 L38 161.3 L49 151.6 L41 142.6 L49 132.9 L38 123.9 C36 115.9 34 121.2 44.3 105.2Z" fill="#7A4E2E"/>
    <circle cx="128" cy="120" r="76" fill="#F6CDB4"/>
    <ellipse cx="108" cy="102" rx="31.9" ry="21.3" fill="#ffe9d0" opacity="0.35"/>
    <ellipse cx="128" cy="161.8" rx="41.8" ry="16.7" fill="#deb59c" opacity="0.12"/>
    <path d="M44.3 105.2 A85 85 0 0 1 211.7 105.2 C207.7 113.2 180 92 172 96 L160 87 L148 98 L136 89 L122 98 L110 88 L98 97 L84 90 C76 94 48.3 113.2 44.3 105.2Z" fill="#7A4E2E"/>
    <ellipse cx="108" cy="50" rx="20" ry="8" fill="#a27656" opacity="0.28" transform="rotate(16 108 50)"/>
    <path d="M90 98 q14 -7 28 0" fill="none" stroke="#7A4E2E" stroke-width="4" stroke-linecap="round"/>
    <path d="M138 98 q14 -7 28 0" fill="none" stroke="#7A4E2E" stroke-width="4" stroke-linecap="round"/>
    <ellipse cx="104" cy="116" rx="14" ry="15" fill="#FFFDF8"/>
    <circle cx="104" cy="117" r="7.7" fill="#3A2C24"/>
    <circle cx="107" cy="113" r="2.9" fill="#FFFDF8"/>
    <circle cx="102" cy="120" r="2.2" fill="#FFFDF8" opacity="0.7"/>
    <ellipse cx="152" cy="116" rx="14" ry="15" fill="#FFFDF8"/>
    <circle cx="152" cy="117" r="7.7" fill="#3A2C24"/>
    <circle cx="155" cy="113" r="2.9" fill="#FFFDF8"/>
    <circle cx="150" cy="120" r="2.2" fill="#FFFDF8" opacity="0.7"/>
    
    <ellipse cx="98" cy="140" rx="13" ry="8" fill="#E89A90" opacity="0.4"/>
    <ellipse cx="158" cy="140" rx="13" ry="8" fill="#E89A90" opacity="0.4"/>
    
    <ellipse cx="128" cy="138" rx="4.5" ry="3.2" fill="#C47A5A" opacity="0.35"/>
    <path d="M116 152 q12 10 24 0" fill="none" stroke="#C45A5A" stroke-width="3.4" stroke-linecap="round"/>
    <path d="M90 210 Q94 190 110 192" stroke="#3A3A40" stroke-width="4" fill="none"/>
    <path d="M166 210 Q162 190 146 192" stroke="#3A3A40" stroke-width="4" fill="none"/>
    <rect x="82" y="208" width="16" height="22" rx="7" fill="#3A3A40"/>
    <rect x="158" y="208" width="16" height="22" rx="7" fill="#3A3A40"/>
    <rect x="86" y="212" width="8" height="14" rx="4" fill="#6B6B74"/>
    <rect x="162" y="212" width="8" height="14" rx="4" fill="#6B6B74"/>
  </g>
</svg>
