<svg xmlns="http://www.w3.org/2000/svg" viewBox="0 0 256 256" width="256" height="256">
  <defs>
    <clipPath id="c"><circle cx="128" cy="128" r="124"/></clipPath>
    <clipPath id="sh"><ellipse cx="128" cy="236" rx="92" ry="46"/></clipPath>
  </defs>
  <g clip-path="url(#c)">
    <circle cx="128" cy="128" r="124" fill="#F6F0E8"/>
    <ellipse cx="128" cy="236" rx="92" ry="46" fill="#7A8A62"/>
    <ellipse cx="128" cy="230" rx="66.2" ry="18" fill="#64744c" opacity="0.16"/>
    <rect x="108" y="188" width="40" height="20" rx="18" fill="#F6CDB4"/>
    <ellipse cx="128" cy="192" rx="18" ry="6" fill="#e4bba2" opacity="0.2"/>
    <path d="M102 196 Q128 218 154 196" fill="none" stroke="#607048" stroke-width="3" opacity="0.5"/>
    <circle cx="48" cy="128" r="14" fill="#F6CDB4"/>
    <circle cx="48" cy="128" r="7" fill="#e6bda4" opacity="0.25"/>
    <circle cx="208" cy="128" r="14" fill="#F6CDB4"/>
    <circle cx="208" cy="128" r="7" fill="#e6bda4" opacity="0.25"/>
    <path d="M45.3 105.4 A84 84 0 0 1 210.7 105.4 C218 125.4 214 160 212 200 Q212 218 194 218 L158 218 L158 130 L98 130 L98 218 L62 218 Q44 218 44 200 C42 160 38 125.4 45.3 105.4Z" fill="#1A1614"/>
    <circle cx="128" cy="120" r="76" fill="#F6CDB4"/>
    <ellipse cx="108" cy="102" rx="31.9" ry="21.3" fill="#ffe9d0" opacity="0.35"/>
    <ellipse cx="128" cy="161.8" rx="41.8" ry="16.7" fill="#deb59c" opacity="0.12"/>
    <path d="M45.3 105.4 A84 84 0 0 1 210.7 105.4 L184 103 L176 95 L80 95 L72 103 L45.3 105.4Z" fill="#1A1614"/>
    <ellipse cx="128" cy="48" rx="26" ry="7" fill="#423e3c" opacity="0.28"/>
    <path d="M90 98 q14 -7 28 0" fill="none" stroke="#1A1614" stroke-width="4" stroke-linecap="round"/>
    <path d="M138 98 q14 -7 28 0" fill="none" stroke="#1A1614" stroke-width="4" stroke-linecap="round"/>
    <ellipse cx="104" cy="116" rx="14" ry="15" fill="#FFFDF8"/>
    <circle cx="104" cy="117" r="7.7" fill="#3A2C24"/>
    <circle cx="107" cy="113" r="2.9" fill="#FFFDF8"/>
    <circle cx="102" cy="120" r="2.2" fill="#FFFDF8" opacity="0.7"/>
    <ellipse cx="152" cy="116" rx="14" ry="15" fill="#FFFDF8"/>
    <circle cx="152" cy="117" r="7.7" fill="#3A2C24"/>
    <circle cx="155" cy="113" r="2.9" fill="#FFFDF8"/>
    <circle cx="150" cy="120" r="2.2" fill="#FFFDF8" opacity="0.7"/>
    <path d="M90 116 A14 15 0 0 1 118 116" stroke="#3A2C24" stroke-width="1.8" fill="none"/>
    <path d="M138 116 A14 15 0 0 1 166 116" stroke="#3A2C24" stroke-width="1.8" fill="none"/>
    <path d="M91 114 q-5 -1 -8 -7" stroke="#3A2C24" stroke-width="2.4" fill="none" stroke-linecap="round"/>
    <path d="M165 114 q5 -1 8 -7" stroke="#3A2C24" stroke-width="2.4" fill="none" stroke-linecap="round"/>
    <ellipse cx="98" cy="140" rx="13" ry="8" fill="#E89A90" opacity="0.4"/>
    <ellipse cx="158" cy="140" rx="13" ry="8" fill="#E89A90" opacity="0.4"/>
    
    <ellipse cx="128" cy="138" rx="4.5" ry="3.2" fill="#C47A5A" opacity="0.35"/>
    <path d="M116 152 q12 10 24 0" fill="none" stroke="#C45A5A" stroke-width="3.4" stroke-linecap="round"/>
    <rect x="84" y="98" width="40" height="34" rx="5" fill="none" stroke="#2F3A45" stroke-width="3"/>
    <rect x="132" y="98" width="40" height="34" rx="5" fill="none" stroke="#2F3A45" stroke-width="3"/>
    <path d="M124 114 H132" stroke="#2F3A45" stroke-width="3" stroke-linecap="round"/>
  </g>
</svg>
